# xmcd CD database file
#
# Track frame offsets:
#	150
#	3144
#	8221
#	11201
#	12516
#	17390
#	18375
#	24878
#	32157
#	40775
#	44700
#	49492
#	52108
#	56818
#	60065
#	66379
#	69513
#	71803
#	76867
#	80746
#	85534
#	93000
#	95738
#	99852
#	104883
#	110715
#	119959
#	131632
#	137322
#	138942
#	143649
#	145239
#	151942
#	154302
#	157403
#	160895
#
# Disc length: 2205 seconds
#
# Revision: 0
# Processed by: cddbd v1.5.2PL0 Copyright (c) Steve Scherf et al.
# Submitted via: CDex 1.70beta2
#
DISCID=f0089b24
DTITLE=Todd Lowry - The Best of Blues Piano
DYEAR=2005
DGENRE=Blues
TTITLE0=The Pearls - Intro - Full Band
TTITLE1=The Pearls - Intro - Slow Demo
TTITLE2=The Pearls - Break and Trio - Full Band
TTITLE3=The Pearls - Break - Slow Demo
TTITLE4=Cow Cow Blues - Full Band
TTITLE5=Cow Cow Blues - Second Chorus - Slow Demo
TTITLE6=Cryin' In My Sleep - Piano Solo - Full Band
TTITLE7=(The Original) Boogie Woogie - Full Band
TTITLE8=(The Original) Boogie Woogie - Slow Demo
TTITLE9=Roll 'Em Pete - Intro, First Chorus, and Second Chorus - Full Band
TTITLE10=Roll 'Em Pete - Intro and First Chorus - Slow Demo
TTITLE11=Roll 'Em Pete - Piano Solo - Full Band
TTITLE12=Roll 'Em Pete - Piano Solo - Slow Demo
TTITLE13=Honky Tonk Train - Intro, First Chorus, and Second Chorus - Full Band
TTITLE14=Honky Tonk Train - Intro, First Chorus, and Second Chorus - Slow Demo
TTITLE15=Honky Tonk Train - Fifth and Sixth Choruses - Full Band
TTITLE16=Honky Tonk Train - Fifth and Sixth Choruses - Slow Demo
TTITLE17=Confessin' The Blues - Full Band
TTITLE18=Confessin' The Blues - Intro - Slow Demo
TTITLE19=Everyday I Have The Blues - Intro and Vocal Chorus - Full Band
TTITLE20=Everyday I Have The Blues - Intro and Vocal Chorus - Slow Demo
TTITLE21=Everyday I Have The Blues - Piano Solo - Full Band
TTITLE22=Everyday I Have The Blues - Piano Solo - Slow Demo
TTITLE23=Route 66 - Piano Solo and Coda - Full Band
TTITLE24=Route 66 - Piano Solo - Slow Demo
TTITLE25=Diving Duck - Piano Solo - Full Band
TTITLE26=Diving Duck - Piano Solo - Slow Demo
TTITLE27=Caldonia - Piano Solo - Full Band
TTITLE28=Caldonia - Fourth Chorus - Slow Demo
TTITLE29=Big Chief - Intro - Full Band
TTITLE30=Big Chief - Intro Partial - Slow Demo
TTITLE31=Blueberry Hill - Full Band
TTITLE32=Tipitina - Intro - Full Band
TTITLE33=Tipitina - Intro - Slow Demo
TTITLE34=Tipitina - Piano Solo - Full Band
TTITLE35=Tipitina - Piano Solo - Slow Demo
EXTD=YEAR: 2005
EXTT0=
EXTT1=
EXTT2=
EXTT3=
EXTT4=
EXTT5=
EXTT6=
EXTT7=
EXTT8=
EXTT9=
EXTT10=
EXTT11=
EXTT12=
EXTT13=
EXTT14=
EXTT15=
EXTT16=
EXTT17=
EXTT18=
EXTT19=
EXTT20=
EXTT21=
EXTT22=
EXTT23=
EXTT24=
EXTT25=
EXTT26=
EXTT27=
EXTT28=
EXTT29=
EXTT30=
EXTT31=
EXTT32=
EXTT33=
EXTT34=
EXTT35=
PLAYORDER=
